Yes, it's a silly movie, but it's intended to be.  Many reviews describe it as "Monty Python meets Dr. Seuss".

This is my own rip.

General
Unique ID                        : 241375635696056962814127733863350650699 (0xB59741A79368D9DF87BA75672C05C74B)
Format                           : Matroska
Format version                   : Version 4 / Version 2
File size                        : 2.35 GiB
Duration                         : 1h 28mn
Overall bit rate mode            : Variable
Overall bit rate                 : 3 817 Kbps
Encoded date                     : UTC 2010-02-22 21:41:31
Writing application              : mkvmerge v5.9.0 ('On The Loose') built on Dec  9 2012 15:37:01
Writing library                  : libebml v1.3.0 + libmatroska v1.4.0

Video
ID                               : 1
Format                           : AVC
Format/Info                      : Advanced Video Codec
Format profile                   : High@L4.1
Format settings, CABAC           : Yes
Format settings, ReFrames        : 7 frames
Codec ID                         : V_MPEG4/ISO/AVC
Duration                         : 1h 28mn
Bit rate mode                    : Variable
Bit rate                         : 3 357 Kbps
Maximum bit rate                 : 11.6 Mbps
Width                            : 1 280 pixels
Height                           : 692 pixels
Display aspect ratio             : 1.850
Frame rate                       : 23.976 fps
Color space                      : YUV
Chroma subsampling               : 4:2:0
Bit depth                        : 8 bits
Scan type                        : Progressive
Bits/(Pixel*Frame)               : 0.158
Stream size                      : 2.07 GiB (88%)
Writing library                  : x264 core 129 r2230 1cffe9f
Language                         : English
Default                          : Yes
Forced                           : No

Audio
ID                               : 2
Format                           : AC-3
Format/Info                      : Audio Coding 3
Mode extension                   : CM (complete main)
Codec ID                         : A_AC3
Duration                         : 1h 28mn
Bit rate mode                    : Constant
Bit rate                         : 384 Kbps
Channel(s)                       : 2 channels
Channel positions                : Front: L R
Sampling rate                    : 48.0 KHz
Bit depth                        : 16 bits
Compression mode                 : Lossy
Stream size                      : 242 MiB (10%)
Language                         : English
Default                          : Yes
Forced                           : No

Menu
00:00:00.000                     : The Planet Spengo
00:07:33.870                     : Trip for the Nelsons
00:16:58.059                     : Prisoners of Spengo
00:29:48.578                     : Mind-Milking Machine
00:35:14.195                     : Daring Escape
00:43:50.920                     : Rebels in the Desert
00:54:55.918                     : The Wedding Day
01:06:29.777                     : The Rescue
01:14:54.387                     : Return to Earth
01:18:53.812                     : Credits
